<svg version="1.1" id="Layer_1" xmlns="http://www.w3.org/2000/svg" xmlns:xlink="http://www.w3.org/1999/xlink" x="0px" y="0px"
	 width="100%" viewBox="0 0 527 175" enable-background="new 0 0 527 175" xml:space="preserve">
<path fill="#FEFFFE" opacity="1.000000" stroke="none" 
	d="
M374.000000,176.000000 
	C249.333359,176.000000 125.166725,176.000000 1.000067,176.000000 
	C1.000044,117.666710 1.000044,59.333420 1.000022,1.000098 
	C176.666580,1.000065 352.333160,1.000065 527.999817,1.000033 
	C527.999878,59.333233 527.999878,117.666466 527.999939,175.999847 
	C476.833344,176.000000 425.666656,176.000000 374.000000,176.000000 
M111.222572,43.031307 
	C106.635391,43.031307 102.048210,43.031307 96.963257,43.031307 
	C96.963257,58.315235 96.963257,72.789833 96.963257,88.488388 
	C90.795708,75.850250 85.248955,64.394745 79.621094,52.979218 
	C74.796593,43.193233 63.722965,39.412727 54.066689,44.503239 
	C52.338028,45.414536 50.307938,47.836658 50.286022,49.584629 
	C50.033466,69.728569 50.043827,89.877884 50.219189,110.023720 
	C50.265968,115.397842 52.813046,117.941002 58.180187,118.425232 
	C62.233284,118.790894 66.345833,118.497620 70.477432,118.497620 
	C70.477432,102.918060 70.477432,88.527473 70.477432,72.671715 
	C71.862183,74.823395 72.540054,75.669884 72.999184,76.621880 
	C77.978485,86.946220 82.882675,97.306908 87.889061,107.618019 
	C93.032837,118.212082 103.051346,122.129189 113.893631,117.548279 
	C115.500336,116.869438 117.501389,114.610519 117.518417,113.062798 
	C117.743675,92.585396 117.689796,72.104233 117.591034,51.624569 
	C117.572350,47.750702 116.324837,44.366707 111.222572,43.031307 
M392.007507,90.503029 
	C391.999390,86.340355 392.139191,82.171013 391.951965,78.016411 
	C391.574799,69.647926 387.774780,63.073475 379.987244,59.936466 
	C365.894531,54.259594 351.903381,55.172031 338.921753,63.238926 
	C336.339142,64.843773 333.730804,68.665710 333.603088,71.573738 
	C333.033875,84.534447 333.257233,97.535797 333.419861,110.519638 
	C333.476440,115.037933 335.972382,118.246666 340.623901,118.676048 
	C344.987732,119.078880 349.417908,118.762337 354.165253,118.762337 
	C354.165253,104.783165 354.138855,91.985619 354.203033,79.188515 
	C354.210022,77.792877 354.512817,75.295380 355.062531,75.182678 
	C358.992371,74.377052 363.110138,73.325851 366.994232,73.794464 
	C370.687531,74.240074 371.117401,77.975128 371.097504,81.346672 
	C371.042450,90.670898 371.000824,99.996758 371.117950,109.319908 
	C371.190430,115.091270 373.580292,118.225548 378.688110,118.721313 
	C383.020508,119.141830 387.426147,118.808067 392.007507,118.808067 
	C392.007507,108.794258 392.007507,100.148117 392.007507,90.503029 
M155.504257,102.244148 
	C153.710175,100.562431 151.916092,98.880714 149.605881,96.715179 
	C151.317566,96.250725 151.767609,96.079636 152.232864,96.009613 
	C161.281403,94.647530 170.332504,93.302452 179.381439,91.942955 
	C186.945282,90.806572 189.616516,87.705742 188.982162,80.181038 
	C188.189240,70.775131 183.385345,63.777000 174.844330,59.937965 
	C162.544128,54.409241 150.206329,54.802048 139.573349,63.474930 
	C128.630234,72.400787 127.332283,84.828117 130.700851,97.673683 
	C135.922791,117.586845 165.742477,127.809242 182.561096,115.560478 
	C184.469254,114.170792 186.007004,111.356880 186.401245,108.984772 
	C187.377853,103.108879 183.161560,100.016350 177.669998,102.035423 
	C170.592148,104.637726 163.435989,105.280495 155.504257,102.244148 
M311.245514,61.115345 
	C309.912964,60.435429 308.617371,59.667629 307.242188,59.089020 
	C291.079803,52.288548 272.354095,58.851219 265.919250,73.545692 
	C260.228516,86.540924 263.604736,103.566635 273.582001,112.187889 
	C283.606171,120.849670 305.388824,122.810776 316.094116,116.015251 
	C320.475037,113.234329 321.850159,108.254211 319.383606,103.877975 
	C317.862579,101.179352 316.387390,100.251877 312.674591,101.428307 
	C307.109589,103.191628 301.001648,103.828545 295.124207,103.830772 
	C290.518738,103.832520 286.232819,101.716484 284.388062,96.456764 
	C285.353943,96.223076 285.817291,96.073044 286.292480,96.001617 
	C295.343781,94.641266 304.398010,93.300697 313.448334,91.933861 
	C320.968536,90.798103 323.593567,87.659027 322.987671,80.108047 
	C322.347626,72.131615 318.485413,65.971985 311.245514,61.115345 
M489.001434,57.236919 
	C479.983612,55.921913 471.077393,55.806614 462.647491,59.985790 
	C455.912476,63.324696 452.333832,68.810486 452.386688,76.335228 
	C452.439911,83.917030 456.027130,89.471436 463.211151,92.075607 
	C468.017975,93.818047 473.175262,94.587425 477.998810,96.292755 
	C480.033295,97.012054 481.612335,99.019569 483.398407,100.441521 
	C481.324005,101.700005 479.142700,104.163841 477.195190,103.991165 
	C471.332092,103.471329 465.415802,102.378334 459.810669,100.595779 
	C456.817932,99.644028 455.528870,100.303688 454.166809,102.524933 
	C450.754059,108.090324 453.185486,114.616722 460.274902,117.347198 
	C470.222290,121.178398 480.485229,121.122154 490.615997,118.046631 
	C499.129852,115.461960 503.762177,109.451523 504.067139,101.457458 
	C504.397064,92.810448 500.982574,87.293877 492.287262,83.826057 
	C487.229706,81.809021 481.772308,80.814598 476.609406,79.028793 
	C475.178406,78.533829 474.157349,76.853737 472.948212,75.717400 
	C474.261444,74.666275 475.608887,72.679153 476.881989,72.725677 
	C482.459625,72.929466 488.089996,73.342995 493.557404,74.414474 
	C498.431671,75.369705 500.414215,74.472252 501.040314,69.524307 
	C501.824677,63.325294 498.682281,59.954636 489.001434,57.236919 
M254.430511,75.952263 
	C254.834579,74.512794 255.274155,73.082207 255.637115,71.632446 
	C258.501770,60.189972 253.424484,55.218525 241.765793,57.690941 
	C237.954468,58.499195 236.084702,60.104832 235.643127,64.132401 
	C235.156387,68.571571 233.919739,72.937225 232.887131,77.305916 
	C231.042206,85.111298 229.105286,92.894936 227.206802,100.687660 
	C223.395462,89.418068 220.635742,78.288727 217.736130,67.195946 
	C215.225677,57.591923 206.668381,54.248993 198.035797,59.283600 
	C195.852295,60.557045 194.999359,61.904121 195.907730,64.504379 
	C201.492630,80.491226 206.725204,96.607246 212.680344,112.452782 
	C213.695602,115.154236 217.367218,117.948616 220.277527,118.591621 
	C224.675385,119.563301 229.604034,119.271812 234.067764,118.353516 
	C236.514053,117.850258 239.523849,115.389816 240.468826,113.073265 
	C245.357437,101.089142 249.661362,88.866508 254.430511,75.952263 
M436.781067,118.641930 
	C437.078033,118.492783 437.385864,118.361801 437.670349,118.191795 
	C442.548798,115.276657 444.118042,111.535683 443.012604,106.533386 
	C441.730316,100.730942 437.500519,103.457832 434.259155,103.259956 
	C433.098663,103.189102 431.925812,103.217751 430.778076,103.059593 
	C427.761658,102.643913 425.892548,101.063164 425.881775,97.830009 
	C425.861359,91.715698 425.875854,85.601273 425.875854,78.990959 
	C429.818207,78.990959 433.439941,79.131287 437.046387,78.956291 
	C441.814636,78.724937 444.094940,75.784348 443.919434,70.468864 
	C443.720398,64.439583 442.383911,63.020538 436.890869,63.015617 
	C433.285767,63.012386 429.680664,63.015007 426.048981,63.015007 
	C427.132019,47.555004 424.904297,42.493000 405.415833,46.668140 
	C405.415833,65.706757 404.938995,84.799683 405.626617,103.850571 
	C405.947479,112.739830 411.376251,117.687195 420.226471,118.955261 
	C425.379913,119.693649 430.743958,118.962341 436.781067,118.641930 
z"/>
<path fill="#6FC006" opacity="1.000000" stroke="none" 
	d="
M111.610641,43.111000 
	C116.324837,44.366707 117.572350,47.750702 117.591034,51.624569 
	C117.689796,72.104233 117.743675,92.585396 117.518417,113.062798 
	C117.501389,114.610519 115.500336,116.869438 113.893631,117.548279 
	C103.051346,122.129189 93.032837,118.212082 87.889061,107.618019 
	C82.882675,97.306908 77.978485,86.946220 72.999184,76.621880 
	C72.540054,75.669884 71.862183,74.823395 70.477432,72.671715 
	C70.477432,88.527473 70.477432,102.918060 70.477432,118.497620 
	C66.345833,118.497620 62.233284,118.790894 58.180187,118.425232 
	C52.813046,117.941002 50.265968,115.397842 50.219189,110.023720 
	C50.043827,89.877884 50.033466,69.728569 50.286022,49.584629 
	C50.307938,47.836658 52.338028,45.414536 54.066689,44.503239 
	C63.722965,39.412727 74.796593,43.193233 79.621094,52.979218 
	C85.248955,64.394745 90.795708,75.850250 96.963257,88.488388 
	C96.963257,72.789833 96.963257,58.315235 96.963257,43.031307 
	C102.048210,43.031307 106.635391,43.031307 111.610641,43.111000 
z"/>
<path fill="#427403" opacity="1.000000" stroke="none" 
	d="
M392.007507,91.002502 
	C392.007507,100.148117 392.007507,108.794258 392.007507,118.808067 
	C387.426147,118.808067 383.020508,119.141830 378.688110,118.721313 
	C373.580292,118.225548 371.190430,115.091270 371.117950,109.319908 
	C371.000824,99.996758 371.042450,90.670898 371.097504,81.346672 
	C371.117401,77.975128 370.687531,74.240074 366.994232,73.794464 
	C363.110138,73.325851 358.992371,74.377052 355.062531,75.182678 
	C354.512817,75.295380 354.210022,77.792877 354.203033,79.188515 
	C354.138855,91.985619 354.165253,104.783165 354.165253,118.762337 
	C349.417908,118.762337 344.987732,119.078880 340.623901,118.676048 
	C335.972382,118.246666 333.476440,115.037933 333.419861,110.519638 
	C333.257233,97.535797 333.033875,84.534447 333.603088,71.573738 
	C333.730804,68.665710 336.339142,64.843773 338.921753,63.238926 
	C351.903381,55.172031 365.894531,54.259594 379.987244,59.936466 
	C387.774780,63.073475 391.574799,69.647926 391.951965,78.016411 
	C392.139191,82.171013 391.999390,86.340355 392.007507,91.002502 
z"/>
<path fill="#437404" opacity="1.000000" stroke="none" 
	d="
M155.850220,102.451035 
	C163.435989,105.280495 170.592148,104.637726 177.669998,102.035423 
	C183.161560,100.016350 187.377853,103.108879 186.401245,108.984772 
	C186.007004,111.356880 184.469254,114.170792 182.561096,115.560478 
	C165.742477,127.809242 135.922791,117.586845 130.700851,97.673683 
	C127.332283,84.828117 128.630234,72.400787 139.573349,63.474930 
	C150.206329,54.802048 162.544128,54.409241 174.844330,59.937965 
	C183.385345,63.777000 188.189240,70.775131 188.982162,80.181038 
	C189.616516,87.705742 186.945282,90.806572 179.381439,91.942955 
	C170.332504,93.302452 161.281403,94.647530 152.232864,96.009613 
	C151.767609,96.079636 151.317566,96.250725 149.605881,96.715179 
	C151.916092,98.880714 153.710175,100.562431 155.850220,102.451035 
M167.525543,75.038658 
	C164.032730,71.126740 159.689682,71.158028 155.271667,72.745956 
	C151.192230,74.212227 149.039124,77.304848 148.952713,82.434914 
	C155.895599,81.296745 162.552338,80.205482 169.633255,79.044678 
	C168.842163,77.411285 168.420517,76.540718 167.525543,75.038658 
z"/>
<path fill="#437404" opacity="1.000000" stroke="none" 
	d="
M311.550171,61.321480 
	C318.485413,65.971985 322.347626,72.131615 322.987671,80.108047 
	C323.593567,87.659027 320.968536,90.798103 313.448334,91.933861 
	C304.398010,93.300697 295.343781,94.641266 286.292480,96.001617 
	C285.817291,96.073044 285.353943,96.223076 284.388062,96.456764 
	C286.232819,101.716484 290.518738,103.832520 295.124207,103.830772 
	C301.001648,103.828545 307.109589,103.191628 312.674591,101.428307 
	C316.387390,100.251877 317.862579,101.179352 319.383606,103.877975 
	C321.850159,108.254211 320.475037,113.234329 316.094116,116.015251 
	C305.388824,122.810776 283.606171,120.849670 273.582001,112.187889 
	C263.604736,103.566635 260.228516,86.540924 265.919250,73.545692 
	C272.354095,58.851219 291.079803,52.288548 307.242188,59.089020 
	C308.617371,59.667629 309.912964,60.435429 311.550171,61.321480 
M288.107056,81.714546 
	C293.136078,80.832130 298.165070,79.949715 303.280060,79.052208 
	C300.996124,72.988129 297.511139,71.020042 291.492218,72.017441 
	C286.300934,72.877670 283.316010,76.494499 283.336731,82.238174 
	C284.653168,82.111176 285.943024,81.986740 288.107056,81.714546 
z"/>
<path fill="#437404" opacity="1.000000" stroke="none" 
	d="
M489.400146,57.351654 
	C498.682281,59.954636 501.824677,63.325294 501.040314,69.524307 
	C500.414215,74.472252 498.431671,75.369705 493.557404,74.414474 
	C488.089996,73.342995 482.459625,72.929466 476.881989,72.725677 
	C475.608887,72.679153 474.261444,74.666275 472.948212,75.717392 
	C474.157349,76.853737 475.178406,78.533829 476.609406,79.028793 
	C481.772308,80.814598 487.229706,81.809021 492.287262,83.826057 
	C500.982574,87.293877 504.397064,92.810448 504.067139,101.457458 
	C503.762177,109.451523 499.129852,115.461960 490.615997,118.046631 
	C480.485229,121.122154 470.222290,121.178398 460.274902,117.347198 
	C453.185486,114.616722 450.754059,108.090324 454.166809,102.524933 
	C455.528870,100.303688 456.817932,99.644028 459.810669,100.595779 
	C465.415802,102.378334 471.332092,103.471329 477.195190,103.991165 
	C479.142700,104.163841 481.324005,101.700005 483.398407,100.441521 
	C481.612335,99.019569 480.033295,97.012054 477.998810,96.292755 
	C473.175262,94.587425 468.017975,93.818047 463.211151,92.075607 
	C456.027130,89.471436 452.439911,83.917030 452.386688,76.335228 
	C452.333832,68.810486 455.912476,63.324696 462.647491,59.985790 
	C471.077393,55.806614 479.983612,55.921913 489.400146,57.351654 
z"/>
<path fill="#437404" opacity="1.000000" stroke="none" 
	d="
M254.299805,76.339645 
	C249.661362,88.866508 245.357437,101.089142 240.468826,113.073265 
	C239.523849,115.389816 236.514053,117.850258 234.067764,118.353516 
	C229.604034,119.271812 224.675385,119.563301 220.277527,118.591621 
	C217.367218,117.948616 213.695602,115.154236 212.680344,112.452782 
	C206.725204,96.607246 201.492630,80.491226 195.907730,64.504379 
	C194.999359,61.904121 195.852295,60.557045 198.035797,59.283600 
	C206.668381,54.248993 215.225677,57.591923 217.736130,67.195946 
	C220.635742,78.288727 223.395462,89.418068 227.206802,100.687660 
	C229.105286,92.894936 231.042206,85.111298 232.887131,77.305916 
	C233.919739,72.937225 235.156387,68.571571 235.643127,64.132401 
	C236.084702,60.104832 237.954468,58.499195 241.765793,57.690941 
	C253.424484,55.218525 258.501770,60.189972 255.637115,71.632446 
	C255.274155,73.082207 254.834579,74.512794 254.299805,76.339645 
z"/>
<path fill="#437404" opacity="1.000000" stroke="none" 
	d="
M436.397156,118.767120 
	C430.743958,118.962341 425.379913,119.693649 420.226471,118.955261 
	C411.376251,117.687195 405.947479,112.739830 405.626617,103.850571 
	C404.938995,84.799683 405.415833,65.706757 405.415833,46.668140 
	C424.904297,42.493000 427.132019,47.555004 426.048981,63.015007 
	C429.680664,63.015007 433.285767,63.012386 436.890869,63.015617 
	C442.383911,63.020538 443.720398,64.439583 443.919434,70.468864 
	C444.094940,75.784348 441.814636,78.724937 437.046387,78.956291 
	C433.439941,79.131287 429.818207,78.990959 425.875854,78.990959 
	C425.875854,85.601273 425.861359,91.715698 425.881775,97.830009 
	C425.892548,101.063164 427.761658,102.643913 430.778076,103.059593 
	C431.925812,103.217751 433.098663,103.189102 434.259155,103.259956 
	C437.500519,103.457832 441.730316,100.730942 443.012604,106.533386 
	C444.118042,111.535683 442.548798,115.276657 437.670349,118.191795 
	C437.385864,118.361801 437.078033,118.492783 436.397156,118.767120 
z"/>
<path fill="#F8FAF6" opacity="1.000000" stroke="none" 
	d="
M167.762207,75.354401 
	C168.420517,76.540718 168.842163,77.411285 169.633255,79.044678 
	C162.552338,80.205482 155.895599,81.296745 148.952713,82.434914 
	C149.039124,77.304848 151.192230,74.212227 155.271667,72.745956 
	C159.689682,71.158028 164.032730,71.126740 167.762207,75.354401 
z"/>
<path fill="#F8FAF6" opacity="1.000000" stroke="none" 
	d="
M287.669983,81.788422 
	C285.943024,81.986740 284.653168,82.111176 283.336731,82.238174 
	C283.316010,76.494499 286.300934,72.877670 291.492218,72.017441 
	C297.511139,71.020042 300.996124,72.988129 303.280060,79.052208 
	C298.165070,79.949715 293.136078,80.832130 287.669983,81.788422 
z"/>
</svg>